bw_sq_120_02
version=1
nRows=25
nColumns=46
inDegrees=yes
endheader
time	ground_force3_vx	ground_force3_vy	ground_force3_vz	ground_force3_px	ground_force3_py	ground_force3_pz	ground_torque3_x	ground_torque3_y	ground_torque3_z	ground_force5_vx	ground_force5_vy	ground_force5_vz	ground_force5_px	ground_force5_py	ground_force5_pz	ground_torque5_x	ground_torque5_y	ground_torque5_z	ground_force4_vx	ground_force4_vy	ground_force4_vz	ground_force4_px	ground_force4_py	ground_force4_pz	ground_torque4_x	ground_torque4_y	ground_torque4_z	ground_force1_vx	ground_force1_vy	ground_force1_vz	ground_force1_px	ground_force1_py	ground_force1_pz	ground_torque1_x	ground_torque1_y	ground_torque1_z	ground_force2_vx	ground_force2_vy	ground_force2_vz	ground_force2_px	ground_force2_py	ground_force2_pz	ground_torque2_x	ground_torque2_y	ground_torque2_z
0.000000	-0.000000	-0.000000	0.000000	0.200000	0.000000	-0.300000	0.000000	0.000000	-0.000000	5.408897	348.578613	58.603931	0.210111	0.000000	-1.441716	-0.000014	-1.002903	0.000002	-8.089261	323.290253	-58.899216	0.235159	0.000000	-0.955941	0.000006	-0.528003	0.000003	-0.000000	-0.000000	0.000000	0.200000	0.000000	0.904000	0.000000	0.000000	-0.000000	-0.000000	-0.000000	0.000000	0.400000	0.000000	0.302000	0.000000	0.000000	-0.000000	
0.001000	-0.000000	-0.000000	0.000000	0.200000	0.000000	-0.300000	0.000000	0.000000	-0.000000	5.730304	350.170380	58.443058	0.210015	0.000000	-1.442555	-0.000002	-0.935462	0.000004	-7.119916	323.605408	-59.703926	0.235848	0.000000	-0.956543	0.000023	-0.551359	0.000003	-0.000000	-0.000000	0.000000	0.200000	0.000000	0.904000	0.000000	0.000000	-0.000000	-0.000000	-0.000000	0.000000	0.400000	0.000000	0.302000	0.000000	0.000000	-0.000000	
0.002000	-0.000000	-0.000000	0.000000	0.200000	0.000000	-0.300000	0.000000	0.000000	-0.000000	4.603343	350.492249	59.246067	0.209949	0.000000	-1.441972	0.000047	-1.031371	0.000001	-7.442001	321.365845	-59.221306	0.235924	0.000000	-0.956665	0.000019	-0.500357	0.000003	-0.000000	-0.000000	0.000000	0.200000	0.000000	0.904000	0.000000	0.000000	-0.000000	-0.000000	-0.000000	0.000000	0.400000	0.000000	0.302000	0.000000	0.000000	-0.000000	
0.003000	-0.000000	-0.000000	0.000000	0.200000	0.000000	-0.300000	0.000000	0.000000	-0.000000	4.763028	349.535614	58.443394	0.210098	0.000000	-1.441379	0.000004	-0.762120	0.000004	-6.793198	324.887695	-58.256062	0.235275	0.000000	-0.956515	0.000015	-0.582273	0.000004	-0.000000	-0.000000	0.000000	0.200000	0.000000	0.904000	0.000000	0.000000	-0.000000	-0.000000	-0.000000	0.000000	0.400000	0.000000	0.302000	0.000000	0.000000	-0.000000	
0.004000	-0.000000	-0.000000	0.000000	0.200000	0.000000	-0.300000	0.000000	0.000000	-0.000000	4.924749	350.490936	58.282860	0.209573	0.000000	-1.442803	0.000036	-0.804137	0.000002	-7.282502	321.689758	-59.380821	0.235351	0.000000	-0.955708	0.000001	-0.583394	0.000002	-0.000000	-0.000000	0.000000	0.200000	0.000000	0.904000	0.000000	0.000000	-0.000000	-0.000000	-0.000000	0.000000	0.400000	0.000000	0.302000	0.000000	0.000000	-0.000000	
0.005000	-0.000000	-0.000000	0.000000	0.200000	0.000000	-0.300000	0.000000	0.000000	-0.000000	5.407369	352.405243	58.443058	0.209588	0.000000	-1.442768	0.000017	-0.802619	0.000002	-7.279415	324.246582	-59.542374	0.235757	0.000000	-0.956413	0.000031	-0.438468	0.000004	-0.000000	-0.000000	0.000000	0.200000	0.000000	0.904000	0.000000	0.000000	-0.000000	-0.000000	-0.000000	0.000000	0.400000	0.000000	0.302000	0.000000	0.000000	-0.000000	
0.006000	-0.000000	-0.000000	0.000000	0.200000	0.000000	-0.300000	0.000000	0.000000	-0.000000	4.924749	348.575592	58.604267	0.209594	0.000000	-1.440644	0.000038	-0.797782	0.000000	-7.116827	321.366516	-59.381840	0.235524	0.000000	-0.955948	0.000018	-0.456978	-0.000000	-0.000000	-0.000000	0.000000	0.200000	0.000000	0.904000	0.000000	0.000000	-0.000000	-0.000000	-0.000000	0.000000	0.400000	0.000000	0.302000	0.000000	0.000000	-0.000000	
0.007000	-0.000000	-0.000000	0.000000	0.200000	0.000000	-0.300000	0.000000	0.000000	-0.000000	4.603852	350.810852	58.925678	0.209610	0.000000	-1.441539	0.000037	-0.954889	0.000002	-7.440458	321.689758	-58.578148	0.235036	0.000000	-0.956742	0.000024	-0.548684	0.000006	-0.000000	-0.000000	0.000000	0.200000	0.000000	0.904000	0.000000	0.000000	-0.000000	-0.000000	-0.000000	0.000000	0.400000	0.000000	0.302000	0.000000	0.000000	-0.000000	
0.008000	-0.000000	-0.000000	0.000000	0.200000	0.000000	-0.300000	0.000000	0.000000	-0.000000	4.924241	351.132050	58.603931	0.210211	0.000000	-1.443232	0.000008	-0.820877	0.000004	-7.119915	323.610138	-58.897179	0.234870	0.000000	-0.956842	0.000013	-0.577472	0.000007	-0.000000	-0.000000	0.000000	0.200000	0.000000	0.904000	0.000000	0.000000	-0.000000	-0.000000	-0.000000	0.000000	0.400000	0.000000	0.302000	0.000000	0.000000	-0.000000	
0.009000	-0.000000	-0.000000	0.000000	0.200000	0.000000	-0.300000	0.000000	0.000000	-0.000000	5.248194	348.574615	58.282188	0.209418	0.000000	-1.440331	0.000033	-1.032701	0.000005	-7.280959	322.650818	-58.898197	0.235349	0.000000	-0.956041	0.000012	-0.552622	0.000002	-0.000000	-0.000000	0.000000	0.200000	0.000000	0.904000	0.000000	0.000000	-0.000000	-0.000000	-0.000000	0.000000	0.400000	0.000000	0.302000	0.000000	0.000000	-0.000000	
0.010000	-0.000000	-0.000000	0.000000	0.200000	0.000000	-0.300000	0.000000	0.000000	-0.000000	4.442639	348.898163	58.925678	0.209639	0.000000	-1.441545	0.000026	-0.934472	0.000006	-6.471113	322.010986	-58.093487	0.235062	0.000000	-0.956047	0.000015	-0.627394	0.000003	-0.000000	-0.000000	0.000000	0.200000	0.000000	0.904000	0.000000	0.000000	-0.000000	-0.000000	-0.000000	0.000000	0.400000	0.000000	0.302000	0.000000	0.000000	-0.000000	
0.011000	-0.000000	-0.000000	0.000000	0.200000	0.000000	-0.300000	0.000000	0.000000	-0.000000	5.086472	350.175385	59.408295	0.210574	0.000000	-1.442430	0.000016	-0.901209	0.000000	-7.928218	322.654480	-58.899216	0.234523	0.000000	-0.956073	0.000017	-0.605318	0.000006	-0.000000	-0.000000	0.000000	0.200000	0.000000	0.904000	0.000000	0.000000	-0.000000	-0.000000	-0.000000	0.000000	0.400000	0.000000	0.302000	0.000000	0.000000	-0.000000	
0.012000	-0.000000	-0.000000	0.000000	0.200000	0.000000	-0.300000	0.000000	0.000000	-0.000000	4.280917	349.214386	58.282188	0.209065	0.000000	-1.441507	0.000018	-0.885349	0.000002	-6.794741	321.686768	-59.219265	0.236121	0.000000	-0.956410	0.000026	-0.447970	0.000003	-0.000000	-0.000000	0.000000	0.200000	0.000000	0.904000	0.000000	0.000000	-0.000000	-0.000000	-0.000000	0.000000	0.400000	0.000000	0.302000	0.000000	0.000000	-0.000000	
0.013000	-0.000000	-0.000000	0.000000	0.200000	0.000000	-0.300000	0.000000	0.000000	-0.000000	5.569091	351.128052	58.442719	0.209631	0.000000	-1.441839	0.000038	-0.925283	-0.000001	-7.116827	321.050995	-58.576111	0.235205	0.000000	-0.955705	0.000014	-0.486349	-0.000002	-0.000000	-0.000000	0.000000	0.200000	0.000000	0.904000	0.000000	0.000000	-0.000000	-0.000000	-0.000000	0.000000	0.400000	0.000000	0.302000	0.000000	0.000000	-0.000000	
0.014000	-0.000000	-0.000000	0.000000	0.200000	0.000000	-0.300000	0.000000	0.000000	-0.000000	5.247175	349.534943	58.763786	0.209519	0.000000	-1.441682	0.000041	-0.979381	0.000004	-7.603045	322.977081	-59.380821	0.234458	0.000000	-0.955145	0.000003	-0.494314	0.000005	-0.000000	-0.000000	0.000000	0.200000	0.000000	0.904000	0.000000	0.000000	-0.000000	-0.000000	-0.000000	0.000000	0.400000	0.000000	0.302000	0.000000	0.000000	-0.000000	
0.015000	-0.000000	-0.000000	0.000000	0.200000	0.000000	-0.300000	0.000000	0.000000	-0.000000	5.085962	348.898163	58.603931	0.209512	0.000000	-1.441587	-0.000003	-0.858384	0.000003	-7.604587	323.292603	-58.255043	0.235202	0.000000	-0.956597	0.000018	-0.600939	0.000001	-0.000000	-0.000000	0.000000	0.200000	0.000000	0.904000	0.000000	0.000000	-0.000000	-0.000000	-0.000000	0.000000	0.400000	0.000000	0.302000	0.000000	0.000000	-0.000000	
0.016000	-0.000000	-0.000000	0.000000	0.200000	0.000000	-0.300000	0.000000	0.000000	-0.000000	5.085453	349.854492	59.085533	0.209594	0.000000	-1.441520	0.000046	-0.860896	0.000007	-7.603045	321.046295	-59.381840	0.236324	0.000000	-0.956155	0.000002	-0.414447	0.000007	-0.000000	-0.000000	0.000000	0.200000	0.000000	0.904000	0.000000	0.000000	-0.000000	-0.000000	-0.000000	0.000000	0.400000	0.000000	0.302000	0.000000	0.000000	-0.000000	
0.017000	-0.000000	-0.000000	0.000000	0.200000	0.000000	-0.300000	0.000000	0.000000	-0.000000	5.086472	350.807831	58.924999	0.209471	0.000000	-1.442243	0.000015	-0.965216	0.000006	-7.443545	321.052338	-58.578148	0.235083	0.000000	-0.957227	0.000015	-0.671615	0.000002	-0.000000	-0.000000	0.000000	0.200000	0.000000	0.904000	0.000000	0.000000	-0.000000	-0.000000	-0.000000	0.000000	0.400000	0.000000	0.302000	0.000000	0.000000	-0.000000	
0.018000	-0.000000	-0.000000	0.000000	0.200000	0.000000	-0.300000	0.000000	0.000000	-0.000000	5.086981	349.538269	59.085873	0.210364	0.000000	-1.441649	0.000002	-1.061510	0.000002	-7.282502	322.968658	-59.543396	0.235630	0.000000	-0.957012	0.000007	-0.609556	0.000006	-0.000000	-0.000000	0.000000	0.200000	0.000000	0.904000	0.000000	0.000000	-0.000000	-0.000000	-0.000000	0.000000	0.400000	0.000000	0.302000	0.000000	0.000000	-0.000000	
0.019000	-0.000000	-0.000000	0.000000	0.200000	0.000000	-0.300000	0.000000	0.000000	-0.000000	5.246666	350.805481	58.604267	0.208850	0.000000	-1.442631	-0.000004	-0.744286	0.000008	-6.793198	322.651459	-59.221306	0.234679	0.000000	-0.956495	0.000011	-0.545390	0.000003	-0.000000	-0.000000	0.000000	0.200000	0.000000	0.904000	0.000000	0.000000	-0.000000	-0.000000	-0.000000	0.000000	0.400000	0.000000	0.302000	0.000000	0.000000	-0.000000	
0.020000	-0.000000	-0.000000	0.000000	0.200000	0.000000	-0.300000	0.000000	0.000000	-0.000000	5.407879	348.579590	59.568153	0.209897	0.000000	-1.441936	0.000046	-0.872231	0.000005	-7.443545	322.005951	-58.901260	0.235823	0.000000	-0.957269	0.000000	-0.655168	0.000002	-0.000000	-0.000000	0.000000	0.200000	0.000000	0.904000	0.000000	0.000000	-0.000000	-0.000000	-0.000000	0.000000	0.400000	0.000000	0.302000	0.000000	0.000000	-0.000000	
0.021000	-0.000000	-0.000000	0.000000	0.200000	0.000000	-0.300000	0.000000	0.000000	-0.000000	5.246666	349.218719	59.085873	0.210288	0.000000	-1.441767	0.000039	-0.886824	0.000005	-7.119915	322.330902	-58.414555	0.235316	0.000000	-0.955460	0.000026	-0.597208	0.000008	-0.000000	-0.000000	0.000000	0.200000	0.000000	0.904000	0.000000	0.000000	-0.000000	-0.000000	-0.000000	0.000000	0.400000	0.000000	0.302000	0.000000	0.000000	-0.000000	
0.022000	-0.000000	-0.000000	0.000000	0.200000	0.000000	-0.300000	0.000000	0.000000	-0.000000	5.086472	350.492950	58.764465	0.210012	0.000000	-1.441684	0.000007	-0.973388	0.000002	-7.606133	323.294281	-58.740723	0.234284	0.000000	-0.955576	0.000014	-0.806962	0.000003	-0.000000	-0.000000	0.000000	0.200000	0.000000	0.904000	0.000000	0.000000	-0.000000	-0.000000	-0.000000	0.000000	0.400000	0.000000	0.302000	0.000000	0.000000	-0.000000	
0.023000	-0.000000	-0.000000	0.000000	0.200000	0.000000	-0.300000	0.000000	0.000000	-0.000000	5.085962	352.722504	58.603931	0.209646	0.000000	-1.442979	0.000036	-0.873288	0.000002	-6.149027	324.570160	-58.256062	0.235277	0.000000	-0.956755	0.000008	-0.744635	0.000001	-0.000000	-0.000000	0.000000	0.200000	0.000000	0.904000	0.000000	0.000000	-0.000000	-0.000000	-0.000000	0.000000	0.400000	0.000000	0.302000	0.000000	0.000000	-0.000000	
0.024000	-0.000000	-0.000000	0.000000	0.200000	0.000000	-0.300000	0.000000	0.000000	-0.000000	4.602834	348.581940	58.442719	0.210434	0.000000	-1.441741	0.000014	-0.967129	0.000005	-7.606133	319.125916	-58.739704	0.235538	0.000000	-0.956811	0.000010	-0.685314	0.000003	-0.000000	-0.000000	0.000000	0.200000	0.000000	0.904000	0.000000	0.000000	-0.000000	-0.000000	-0.000000	0.000000	0.400000	0.000000	0.302000	0.000000	0.000000	-0.000000	
